<?xml version="1.0" encoding="UTF-8"?>
<svg version="1.1" viewBox="0 0 908 844" width="227" height="211" xmlns="http://www.w3.org/2000/svg">
<path transform="translate(25,8)" d="m0 0h5l2 2 66 1 18 3 15 5 14 9 12 12 7 11 6 11h692l14 3 9 5 10 8 7 10 5 12 1 4v17l-8 29-18 74-18 71-16 64-8 31-5 13-6 11-9 12-5 6-11 9-10 7-16 8-15 4-7 1h-504l10 50 5 19 7 13 11 10 10 5 14 3 8 1 480 1 7 3 6 7 4 9v10l-4 9-5 6-8 4-4 1-14 1h-444l-35-1-10-2-16-5-14-7-13-10-11-11-10-15-7-15-6-23-10-49-18-89-14-68-18-87-12-60-10-48-7-35-4-12-6-8-8-4-9-2-62-1-9-2-5-4-6-10-3-7-3-3v-3l3-3v-8l4-7zm155 105 2 13 16 80 12 58 29 143 1 4 6 1 509-1 11-4 11-8 7-7 8-17 10-38 18-73 37-148v-3z" fill="#223251"/>
<path transform="translate(306,637)" d="m0 0h16l12 2 16 6 11 6 13 10 9 9 9 14 6 15 4 20v11l-4 21-6 14-8 12-16 16-13 8-15 7-12 3h-30l-10-3-11-5-13-7-11-9-7-7-9-13-6-14-4-14-1-7v-15l2-12 6-17 6-11 7-9 11-11 15-10 17-7zm3 50-13 4-9 7-6 8-4 11-1 7 2 12 6 12 9 8 9 4 4 1h17l12-5 9-8 5-10 1-3 1-12-2-12-5-10-9-8-12-5-5-1z" fill="#20304F"/>
<path transform="translate(707,637)" d="m0 0h14l14 2 16 6 13 7 15 14 9 13 8 16 4 13 2 11v10l-4 20-11 23-7 9-15 15-14 8-14 5-9 2h-29l-12-3-15-6-10-7-10-9-10-12-10-19-5-16-1-7v-15l4-17 5-12 7-13 9-11 10-10 13-8 12-5 12-3zm3 50-9 2-8 4-8 7-6 10-3 14 2 12 6 12 9 8 9 4 4 1h17l12-5 9-8 5-10 1-3 1-12-2-12-5-10-9-8-12-5-5-1z" fill="#20304F"/>
<path transform="translate(25,8)" d="m0 0h5l2 2 4 2-9 2-9 6-3 8-3 9-3-2v-3l3-3v-8l4-7z" fill="#FEFEFE"/>
</svg>
