<?xml version="1.0" encoding="UTF-8"?>
<svg version="1.1" viewBox="0 0 1600 439" width="696" height="191" xmlns="http://www.w3.org/2000/svg">
<path transform="translate(781,15)" d="m0 0h26l21 3 22 6 23 8 16 8 8 7 3 7v9l-2 9 13 13 8 14 2 8-1 8-4 10-5 6-13 9-11 5-28 8-16 5-1 1 13 8 20 12 6 3 5-2h3l-3 3h18l39-1 6-3 16-12 15-8 17-6 18-4 7-1h35l16 4 16 8 3 2 4-1 19-14 12-6 15-4 16-2h13l16 3 10 4 8 5 7 6 10 14 4 6 4-1 10-6 15-7 18-4 8-1h17l12 3 11 6 10 8h2l8-19 8-14 9-13 7-8 10-6 3-1h15l11 4 9 6 7 7 7 14 14-2 9 3 8 7 5 9 2 13-1 13-1 8 27-5 9-1h14l9 2 12 6 10 7 7 6 8 16 2 7v13l-4 12-6 9-11 8-6 3 2 6 3 8 2 10v14l-4 12-8 12-9 10-9 7-15 6-21 2-14-2-12-5-17-12-9-9-9-14-5-14v-12l4-10 5-5 6-4 11-3h8l-9-20-6-17-2-6-15-6-2 21-3 19-6 24-5 19-6 20-6 12-7 9-8 5-8 2h-9l-10-3-10-8-2-2h-7l-25 6-11 1-21-2-13-3-12-6-14-10h-2l-10 14-12 13-14 11-12 6-8 2h-12l-18-4-16-7-11-6-19-14-7-4-19-1h-15l-8 2-11 5-11 2-15-1-12-3h-7l-14 11-10 5-7 2-20 1-24 4h-16l-14-3-12-5-9-6-7-7-6-10-5-17-1-10v-17l-10-15-5-13-2-10v-15l3-9 6-9 7-8 14-11 12-8v-2l-19-11-21-10-18-11-6-3-4 1-10 8-13 10-9 1-5-3-1-2v-7l7-17-9-3-39-16-9-6-5-6-1-3v-9l4-8 8-7 4-2h16l7 1h15l-6-8-7-9-5-10-1-4v-14l3-9 6-7 10-6 13-4z" fill="#1F1C41"/>
<path transform="translate(535,120)" d="m0 0h14l11 4 13 9 10 10 5 9 1 4v16l-2 8 15-5 11-2h14l15 3 12 5 11 7 8 5 12-11 10-5 15-2 19 1 17 4 13 5 11 7 12 11 4 7 1 5-1 14-5 13-6 8-8 7-12 7-1 4 9 20 3 9 1 5v9l-3 12-6 12-7 9-10 9-15 8-13 4-11 2h-14l-15-4-16-8-14-11-3-3-5 2-9 4-14 2-11-2-13-5-22-12-4-1v2l-11 9-10 6-8 2h-21l-10 7-7 2h-16l-15-5-15-8-10 1h-18l-5-1h-17l-16 1-25 9-5 1h-26l-27-6-4 1-17 9-17 10-11 4-4 1h-14l-26-4h-8l-11 20-9 12-10 10-10 7-15 7-12 3h-16l-13-4-9-7-8-9-9-19-15-39-13-33-11-31-10-26-7-22-3-16v-19l4-11 8-10 7-7 14-9 15-7 14-4 11-2h27l15 4 12 5 11 7 14 12 11 12 14-2 15-2 43-1 4-1 4-13 5-21 5-10 5-5 8-5 10-3 6-1h19l10 4 7 8 5 12 6 17 5 4 11 5 5-1 9-4 17-4h18l22 4h6l5-12 6-16 6-10 9-10 8-5 10-1 16 4 14 5 6-1 8-6zm-189 121-3 3-1 7 4 10 4 2 4-4 2-5 1-7-3-5-1-1z" fill="#1F1B41"/>
<path transform="translate(296,147)" d="m0 0h9l10 4 6 5 5 9 3 15 1 12h16l10 5 4 8-1 11-3 8-6 3-14 3-4 4-1 10 3 20 4 15 10 30 2 12v8l-3 6-7 6-2 1h-10l-9-4-8-7-6-10-5-13-7-33-4-33-11-5-4-1 6 13 2 7 1 9v9l-2 11-4 6-7 6-12 5-23 6h-6l4 8 5 6 6 2 8-1 15-12 4-2h7l5 5 1 8-4 13-8 13-9 8-12 5-4 1h-17l-13-4-11-6-6-5-7-10-6 20-8 18-7 11-9 10-9 7-12 6-9 3-5 1h-8l-13-5-5-5-6-9-10-25-13-37-14-40-10-27-10-30-4-14v-14l6-10 10-10 7-5 17-7 16-4 7-1h12l15 4 9 4 11 6 13 11 12 13 9 14 3 5 6-8 8-7 12-5 4-1h18l18 6 7 3h3v-8l8-5 12-5h4v-13l5-25 3-7z" fill="#E23A6C"/>
<path transform="translate(1162,149)" d="m0 0h9l14 2 8 4 8 8 8 13 6 16 2 14v28l9-25 8-14 8-10 9-8 14-7 8-2-1 4h3l-1-4 3-1h8v2h3v-2h13l11 4 9 7 9 9 7 10 5 10 3 12v17l-2 15-4 15-2 3-17 4-58 2v8l4 6 5 4 3 1h9l9-6 5-1h8l9 2 8 5v6l-3 5-1 7-6 7-9 7-13 5-15 1-14-3-14-6-10-7-9-9-6-10-6-13-3-16-5 35-6 18-6 11-9 10-4 4-7 4-9 4-10 2h-14l-12-3-10-6-8-8-5-10-2-6v-6l4-6 5-3 10 2 13 9 9 1 6-3 6-7 4-15v-3l-7 3h-22l-14-7-18-18-8-15-3-13v-21l2-15 3-10 9-15 9-10 7-7 11-7 13-5 8-2z" fill="#F8B05B"/>
<path transform="translate(537,136)" d="m0 0h11l11 4 9 8 1 2v16l-6 34-2 22v22l11-24 6-10 10-11 13-8 10-3 7-1h11l12 3 10 7 7 7 6 12 3 10 3-1 6-14 6-8 7-6 16-7 8-1h15l11 2 15 8 7 7 4 8 1 3v11l-6 12-10 9-8 3-7-1-4-5-6-8h-4l-1 2-5 2v6l8 10 10 11 8 11 5 11 2 8v9l-3 11-5 11-6 8-9 8-14 6-4 1h-17l-14-5-11-7-7-7-6-12v-14l7-11 3-2h11l11 9 5 4 10 2 5-5 1-2-4-6-14-15-7-8-6-10-5-15-3 16-5 12-7 8-5 4h-13l-34-3-6-1 5 4 5 10 2 5 10-1 9-4 7-4 5 1 5 6v10l-5 10-8 8-9 4-4 1h-14l-11-4-14-10-10-11-6-12-3-11-1-7-1-1-4 28-4 12-5 9-7 7-5 3h-6l-4-5-5-10-2-8-1-16v-57l1-26 3-31 5-34 4-8 4-5z" fill="#E23A6C"/>
<path transform="translate(781,15)" d="m0 0h26l21 3 22 6 23 8 16 8 8 7 3 7v9l-2 9 13 13 8 14 2 8-1 8-4 10-5 6-13 9-11 5-28 8-16 5-1 1 13 8 20 12 8 4-4 1-24-13-23-13v2h-2v4l-6-1 3 3 9 3 12 6v2l4 1-2 2-23-11-18-11-6-3-4 1-10 8-13 10-9 1-5-3-1-2v-7l7-17-9-3-39-16-9-6-5-6-1-3v-9l4-8 8-7 4-2h16l7 1h15l-6-8-7-9-5-10-1-4v-14l3-9 6-7 10-6 13-4z" fill="#201D40"/>
<path transform="translate(474,137)" d="m0 0h7l28 8 1 5-6 50-1 17v98l-1 15-3 9-6 7-2 1h-10l-8-7-6-9-3-7-4-22-2-9-1 17-3 12-5 8-6 4h-10l-5-4-4-12-7-2-8 6-9 5-14 3-8-1-9-7-6-9-5-11-1-4v-18l4-10 6-8 8-7 9-4 4-1 30-1-3-6-6-8v-2l-4-1h-10l-13 4-9 6h-6l-4-8-2-6v-14l5-12 8-8 9-5 13-3h18l14 4 13 8 7 9 6 17 3 17v-61l3-15 4-12 8-14z" fill="#E23A6C"/>
<path transform="translate(1023,161)" d="m0 0 17 1 17 9 7 6 11 14 6 9 6 13 2 11 2 30 2 14v9l-6 29-4 7-8 6-10 4h-9l-6-4-6-9-2-8v-51l-3-19-6-14-4-4h-10l-3 3-1 6 5 14 7 32 1 14v23l-2 12-7 11-4 2h-10l-7-6-6-10-8-23-4-16-10-38-4-16-4-9-1-2v-13l8-11 10-8 15-9-14 7-11 9-4 2 3-5 9-8 12-7 16-5z" fill="#F8B05B"/>
<path transform="translate(906,197)" d="m0 0h10l11 3 14 7 8 8 10 15 5 13 6 18 4 22v37l-2 10-5 10-5 5h-9l-13-6-4 6-9 4-8 2h-16l-13-4-9-7-7-9-4-11-1-5v-13l5-14 4-6 7-6 9-4h5 1l7-2 11 1-8-14-7-8-7-2-11 7-13 14-5 5-6 1-6-3-6-8-2-5v-17l3-8 6-10 6-7 10-7 13-6 15-5z" fill="#F8B05B"/>
<path transform="translate(1301,181)" d="m0 0h8l7 1 7 5 6 1 5 5 5 8 4 10 2 8v17l-2 15-4 15-2 3-17 4-58 2v8l4 6 5 4 3 1h9l9-6 5-1h8l9 2 8 5v6l-3 5-1 7-6 7-9 7-13 5-15 1-14-3-14-6-10-7-9-9-6-10-6-13-2-11v-22l1-4h2v-5l5-7 7-1-1 5-3 9v8l2 4 4 2 3-10 3-7 4-13 11-22 5-6h2v-2l8-7 5-2v-2l14-7 6-2z" fill="#F8B05B"/>
<path transform="translate(1491,200)" d="m0 0h13l14 3 15 6 9 7 6 10 3 13-1 10-4 6-5 4-7 2-10-1-8-5-8-9-4-4-7-1-3 2 1 6 9 10 9 11 8 13 3 8 1 6v12l-4 16-5 9-8 8-10 5-4 1h-28l-10-4-11-7-11-10-8-10-2-7v-7l3-9 5-6 2-1h12l9 6 9 9 7 1 6-3h2l2-6 3-4-12-9-6-5-7-10-7-15-2-11 1-10 7-14 7-7 11-6z" fill="#F8AF5B"/>
<path transform="translate(1386,126)" d="m0 0h8l9 3 5 4 4 6 2 6v16l-4 15-12 31-7 24-12 72-6 22-6 11-7 6-2 1-9-1-5-3-4-5-4-9-1-5-1-25-1-6 3-7 7-24 3-15 4-48 2-18 6-16 2-7h2l5-10 9-10-5 4-7 10-2 5-1-4 6-11 7-7 8-4z" fill="#F8B05B"/>
<path transform="translate(885,88)" d="m0 0 4 1 10 6 5 6 2 4v8l-4 7-7 6-8 4-18 6-21 3-13 1h-17l-27-3-14-3-20-6-24-9-11-6-3-4 1-7 2-1v2l5-1-3-2 8 1 7 2 1 1 4 1 2 1 14 1 3 3v-2h39l29-2 12-2 22-5 10-4z" fill="#F8AF5B"/>
<path transform="translate(1386,126)" d="m0 0h8l9 3 5 4 3 4-1 4-9-1-7 3-6 12-7 23-9 40-3 17-1 13-3 15-2 2-5 3h-7l-3 5-5 10h-2l-3 13-1 9h-1l-2-10-1-6 3-7 7-24 3-15 4-48 2-18 6-16 2-7h2l5-10 9-10-5 4-7 10-2 5-1-4 6-11 7-7 8-4z" fill="#FED073"/>
<path transform="translate(795,29)" d="m0 0 17 1 20 4 26 8 20 9 5 4v5l-11 8-4 2h-9l-23-6-44-6h-7l-10 5-6 7-5-2-7-8-3-9v-7l4-6 8-5 6-2z" fill="#F8B05B"/>
<path transform="translate(97,229)" d="m0 0h7l10 4 10 9 9 14 5 11 7 21 1 5v19l-2 13-7 14-8 9-3-1-6-25-12-40-11-33-5-14 1-4z" fill="#1E1A41"/>
<path transform="translate(1277,167)" d="m0 0h8v2h3v-2h13l11 4 9 7 9 9 3 4-1 2-4-4-7-2-5-4-7-1-17 1-13 5-5 3h-2v2l-6 4-5 5h-2v2l-5 5-5 8-6 14-4 10-3 10-5 11-5-2-2-4v-8l5-14-3 2-5 1-3 5-1 5h-1l1-13 9-25 8-14 8-10 9-8 14-7 8-2-1 4h3l-1-4z" fill="#FED073"/>
<path transform="translate(1162,149)" d="m0 0h9l14 2 8 4 8 8 8 13 2 5-1 4-2-4-7-4-21-4-17-2h-14l-10 4-9 7-7 6-7 10-6 10-3 6-3 3-5 2-6 2v6h-1v-16l4-15 9-15 9-10 7-7 11-7 13-5 8-2z" fill="#FEEC8E"/>
<path transform="translate(1278,163)" d="m0 0h23l14 5 12 12v2h2l6 7 9 2-2 7 4-1 2-12h2v-5h1v15l-4 48-5 23-7 22-1 5 1 2 1 25 2 11-2-2-2-7-1-10-4-2-1-3v-1l-4 6-6 5-9 6-5 4-4 1v-2l6-3 8-7 4-6v-5l3-5 1-6-5-2-6-3-6-1h-8l-9 3-5 4h-9l-6-3-6-7-1-2v-8l1-1 58-2 17-4 3-9 3-14 1-9v-17l-4-14-6-11-8-10-8-8-10-6-7-2-13-1v2h-3v-2l-11 1 1 4h-3l-1-3-13 5-4 1 1-2h2v-2h2l1-3 10-4z" fill="#251A28"/>
<path transform="translate(770,134)" d="m0 0 8 2 2 1 9 1h14l6 2h45l2 3h16v2l6-1h2l1 3-32 9-7 3 13 8 20 12 8 4-4 1-24-13-23-13v2h-2v4l-6-1 3 3 9 3 12 6v2l4 1-2 2-23-11-18-11-6-3-4 1-10 8-13 10-9 1-5-3-1-2v-7l5-11h2l2-7-2-2h3l-5-5 1-3z" fill="#262142"/>
<path transform="translate(885,88)" d="m0 0 4 1 10 6 5 6v3h-10l-9 6-16 5-23 4-26 2h-42l-25-3-9-1-4 2-3-4-9-3-8-1-1-5 2-5 1 2 5-1-3-2 8 1 7 2 1 1 4 1 2 1 14 1 3 3v-2h39l29-2 12-2 22-5 10-4z" fill="#FEED8F"/>
<path transform="translate(668,244)" d="m0 0h1l4 15 6 12 7 9 11 11 8 10 1 3-5 6-4 1-10-3-12-11-2-1h-11l-5 5-4 7-1 13h-1l-1-6-6-2-1 2v-13l-5-6-6 1-8 5-11 3h-5l-4-9-5-8-4-4 18 2 23 2h13l8-7 5-8 4-12z" fill="#1F1A41"/>
<path transform="translate(529,140)" d="m0 0v3l-4 8-6 43-2 22-1 29v54l1 16 3 12-3-3-3-7-2-16-5-13h-2l1 3-1 7-1 22-1 8h-1v-111l2-26 5-41 3-3 1 4-2 16h2l2-4 1-4h2l2-4 5-12z" fill="#3C103C"/>
<path transform="translate(98,170)" d="m0 0h12l15 4 9 4 11 6 8 7v2l-4-1-8-4-17-3h-18l-25 6-15 7-8 4-6 6-1 3h-2l-2 6-4 6-2 11-4-5-2-8v-14l6-10 10-10 7-5 17-7 16-4z" fill="#F87C9E"/>
<path transform="translate(537,136)" d="m0 0h11l11 4 9 8v6l-5-4-9-3-4-1-7 6-5 8h-2l-2 7-2 4v6l4-6 3-1-2 6-7 14-4 14-2 16-1 27-1 5-1 54-3 9h-2l-1-16v-57l1-26 3-31 5-34 4-8 4-5z" fill="#F97FA0"/>
<path transform="translate(1019,213)" d="m0 0h10l6 7 5 12 3 19v51l3 10 6 8 5 3-2 1-6-2-4-5v-2l-12-6-3-1-1 5-3 4 1-11v-23l-2-20-6-26-5-15 2-7z" fill="#261A28"/>
<path transform="translate(1494,201)" d="m0 0h17l18 6 11 7 6 8 3 8 1 10-1-2-4-2-8-5-9-4-9-6-12-4h-17l-10 4-6 3-5 8-5 16-4-2-4-8 1-9 3-6 2-6 7-6 16-8z" fill="#FEEC8E"/>
<path transform="translate(1150,202)" d="m0 0 6 1 6 8 5 13 2 7v12l-3 8-5 5-5 4-7 1-9-6-2-6-1-7v-9l2-15 4-10z" fill="#1D1B42"/>
<path transform="translate(1433,153)" d="m0 0h9l6 4 4 7 1 9-3 12-6 12-6 7-10 7-6 2-2-2v-21l3-22 4-10 4-4z" fill="#F9B15B"/>
<path transform="translate(1434,287)" d="m0 0h12l9 6 9 9 7 1 6-3h2l1-4 5-2 7 1 8 6-2 4-8 5-11 4-4 1-6 3h-10l-20-7-6-1-1 3-4 2-2-5h-2v-7l3-9 5-6z" fill="#FECF73"/>
<path transform="translate(896,246)" d="m0 0 7 2 8 9 8 14-3 1-9-1-7 1v2l-6-1-12 6-6 7-5 12-1 4v13l3 12 7 11 7 6 5 3 11 3h16l13-4 4-1 2-5 3-2 12 6 5 1v1l-13-1h-7l-9 7-17 4-19-3-6-3-5-5-4-6-4-4-7-14-2-5 1-9 5-19 1-4 1-8-3-6 9-11 7-7z" fill="#1E1628"/>
<path transform="translate(795,29)" d="m0 0 17 1 20 4 26 8 20 9 5 4v5l-5 4-2-1-4-4v-2l-6-1-6-3-5-1v-2l-12-2-21-6-12-2h-27l-13 4-6 7-2 3h-2l-1 3-4-2-1-4v-7l4-6 8-5 6-2z" fill="#FEF59C"/>
<path transform="translate(713,189)" d="m0 0h15l11 2 15 8 6 6v3l-2 1h-7l-15-5-20 1-13 3-12 6-5 1-1 3-7 4-1 2h-4l1-10 7-10 8-7 16-7z" fill="#F66C95"/>
<path transform="translate(1e3 167)" d="m0 0h40l1 2-2 5-5 3h-18l-13 5-13 8-6 3-9 7-9 6-4 7h-4l-1-2v-13l8-11 10-8 15-9z" fill="#FFF092"/>
<path transform="translate(1408,133)" d="m0 0 5 4 2 4 2 10 4 4 5-1 3 1-2 4-4 14-2 17-1 21-2-1v-2h-2l-4-8-5 2h-3l-4 13-5 9-5 24-2 18-1 8-1 4 2 1v7l-2 6-3 16-2 7-4 2-3 9-4 7-1-2 5-12 5-21 11-67 9-30 11-28 3-12v-16l-4-9z" fill="#251A28"/>
<path transform="translate(1271,168)" d="m0 0 2 1-1 3h3l-1-4h7l1 2 19-1 5 2-1 4-3 2-20 4-12 4-11 7-5 5-5 4-5 5-11 7-4 1-2 5-3 5-2 4h-2l1-5 6-16 7-12 8-10 9-8 14-7z" fill="#FEED90"/>
<path transform="translate(618,187)" d="m0 0h11l12 3 10 7v3l-11-2h-12l-11 2-14 7-9 7-6 5-5 5-4 5h-2l-2 4-5 4-6 7-1-4 9-20 6-10 10-11 13-8 10-3z" fill="#F87D9F"/>
<path transform="translate(1062,175)" d="m0 0 4 2 11 11 8 11 9-4 8-11v3l-6 11-3 13-1 10v21l3 13 8 15 17 17 14 7h22l8-3-1 9-3 10-7 8-6 3h-6v-1l8-2v-5l-4-6 4-7-10-1-9-4-10-5-9-7-9-1-3 3-7 1-1 8-2 7-1-4 4-20v-9l-2-14-2-30-3-14-8-15-11-14z" fill="#1C1626"/>
<path transform="translate(474,137)" d="m0 0h7l13 4 1 3-2 3-5 3-8 11-4 9-5 18-5 28h-2l-3-15-3-1v-16l4-16 3-17 7-12z" fill="#F97FA1"/>
<path transform="translate(1490,196)" d="m0 0h17l23 7 11 6 7 8 3 6 2 11v16l-1 3-4 2-4 4-7 3-14 3-3 1 1 9 3 10 2 9v18l-2 3v-18l-3-12-8-14-9-10-7-8-4-6 1-5 3-2 7 1 5 5 9 10 10 4 10-1 7-4 4-6 1-10-4-15-6-9-11-7-18-6-7-1h-13l-15 3-6 3-2-1 8-6z" fill="#261A28"/>
<path transform="translate(1023,161)" d="m0 0 17 1 17 9 7 6 8 10-1 2-5-6-12-8-6-1-5 6-3 2-16 1-13 4-22 11-5 4-5 5-5 4h-2l-3 17h-2l-3-12-1-3h3l2-5 5-5 8-6 10-7 11-6 14-7 4-1h18l5-2 1-6h-40l-8 2-5 1-11 6-11 9-4 2 3-5 9-8 12-7 16-5z" fill="#FECF73"/>
<path transform="translate(960,192)" d="m0 0 1 2-2 5v6l7 14 4 17 6 21 5 19 4 16 1 8-8-5h-2l-1 3-2-15-5-25-5-15-5-13-8-12-9-10-11-6 3-1 6 3h7 4l3-6z" fill="#130A15"/>
<path transform="translate(1162,149)" d="m0 0h9l14 2 14 14 1 3-9-3-10-5-4-1h-13l-5 3-8 2h-5l-8 4-7 6-9 4-2 7 1 2-1 3-7 7-1-5-2-4-3-1 2-4 6-8 7-7h2v-2l3-2 3-6 12-5 11-3z" fill="#FEFBA4"/>
<path transform="translate(212,206)" d="m0 0h18l18 6 5 2v2h-8v2l-4 1-5-2h-8l-13 4-9 7-8 7-6 9-1 3h-2l-5-18 1-7 8-8 12-6z" fill="#F97E9F"/>
<path transform="translate(396,186)" d="m0 0h18l14 4 13 8v3l-5-2-7 1-26-1-14 5-10 6-6 8-3-2-3-5-2-2 1-7 8-8 9-5z" fill="#F980A1"/>
<path transform="translate(716,104)" d="m0 0h4l1 7 8 5 14 6 30 10 13 3 16 3v1h-13l-9-1-8-3-5 1v2l4 3 1 4-4 7-1-3 1-3-9-3-39-16-9-6-5-6v-5l3-1 1 3 3 1v-2h2v-6z" fill="#35262C"/>
<path transform="translate(907,270)" d="m0 0 9 1 6 4 5 7-2 3-27 4-12 5-5 4-2 3h-3l-1 3v11l4 16h-2l-6-13-1-5v-15l6-14 9-8 9-4h5 1z" fill="#FEEE90"/>
<path transform="translate(423,248)" d="m0 0h2v3l-4 3h-2l4 9-1 1-25 1-9 2-8 5-6 3-4 5-2 4h-2l-1 5h-2v-12l5-12-2 1 1-4 8-7 9-4 4-1 27-1z" fill="#F66C95"/>
<path transform="translate(947,288)" d="m0 0h3l1 8-1 14-3 10-6 9-4 1v2l-5 3-10-1-13-9-5-5-1-4 8 2h8l7-3 9-10 6-3 2-3h2l1-10z" fill="#FED073"/>
<path transform="translate(1278,163)" d="m0 0h23l14 5 12 12v2h2l6 7 9 2-2 7 4-1 2-12h2v-5h1v15l-4 48-5 23-5 16-2 1-2-1v-8l-6-1 3-1v-2l7-2 3-9 3-14 1-9v-17l-4-14-6-11-8-10-8-8-10-6-7-2-13-1v2h-3v-2l-11 1 1 4h-3l-1-3-13 5-4 1 1-2h2v-2h2l1-3 10-4z" fill="#140A16"/>
<path transform="translate(153,278)" d="m0 0 2 2 3 11 2 4 1 6v18l-4 14-4 13h-2l-2 5-8 11-6 5-3 1h-7l-2-4 5-5 8-9h2l1-4 6-12 6-18 2-12z" fill="#FA7FA0"/>
<path transform="translate(906,200)" d="m0 0h8l7 3v2l4 1 3 3 1 5-5-1h-15l-16 4-10 4-13 7-6 4h-2v2l-4 2h-5l2-6 16-16 18-8 8-3z" fill="#FEEF91"/>
<path transform="translate(1163,299)" d="m0 0 2 1-2 13-8 12-10 5h-16l-15-4v5l3 5-1 3-6-5-4-11v-6l4-6 5-3 10 2 13 9 9 1 6-3 6-7 3-10z" fill="#FECE72"/>
<path transform="translate(1212,265)" d="m0 0 2 3 3 16 9 19 11 12 3 4-4 1-7-8-4-4v-2l-11-2-3 2-2 7h-2l-2 9-5 10-7 9h-2l-2 4-6 4-3 3-8 4-7 2h-23l-14-5-9-3-6-4-3-9-4-8-1-11h1l4 14 6 9 8 7 10 5 9 2h14l16-4 7-5 5-3 8-8 6-10 6-15 3-13 3-22z" fill="#1D1627"/>
<path transform="translate(296,147)" d="m0 0h9l10 4 6 5 3 5-1 3-4-4h-10l-6 4-4 5-2 6-2 15-7 2h-5v-15l5-21 3-5z" fill="#F97FA0"/>
<path transform="translate(1027,211)" d="m0 0h5l8 7 8 11 7 14 2 7v19l-3 5-4 2-4 10-3 1-1-36-3-19-6-14-6-5z" fill="#FECE73"/>
<path transform="translate(1277,211)" d="m0 0 7 1 5 5 3 7v13l-2 5-10 2h-8l-6-5-1-9 2-8 6-9z" fill="#1D1B42"/>
<path transform="translate(1150,202)" d="m0 0 6 1 6 8 5 13 2 7v12l-3 8-5 5-5 4-7 1-9-6-2-6-1-7v-9l2-15 4-10zm1 14-6 2-2 3-2 8v16l3 5 1 4 3 5h7l2-2 3-11 2-8 3-1v-10l-4-6-5-4z" fill="#1D1627"/>
<path transform="translate(1384,130)" d="m0 0h15l6 4v2h-8l-1 3-3 2h-4v2l-9 5-10 11-7 11-5 5-3 5-2 5h-1v-8l6-16 2-7h2l5-10 9-10z" fill="#FEEC8F"/>
<path transform="translate(885,88)" d="m0 0 4 1 10 6 4 4v2l-4-2-9-5-7 1-10 6-17 5-26 4-30 3h-30l-13-1-12-3-16-3h-7l-1 5-2-2 1-7 2-1v2l5-1-3-2 8 1 7 2 1 1 4 1 2 1 14 1 3 3v-2h39l29-2 12-2 22-5 10-4z" fill="#F9B35D"/>
<path transform="translate(1170,233)" d="m0 0h1l5 21 1 4-3 8-3 9-7 1-13-4-9-6-5-9 1-5 7 6 4 2 7-1 7-5 4-7 2-6z" fill="#FEED90"/>
<path transform="translate(1128,159)" d="m0 0 2 1-4 6h-2v2l-8 7-8 10v2l4 1 1 8 3-2-2 8-5 9-4 6-5 1-5 3h-2v6h-1v-16l4-15 9-15 9-10 7-7z" fill="#FEEF91"/>
<path transform="translate(525,201)" d="m0 0 1 3-2 16-1 27-1 5-1 54-3 9h-2l-1-16v-57l1-26 1-10h1l1 15 2-10 2-5z" fill="#F2628D"/>
<path transform="translate(1456,217)" d="m0 0 1 2-5 11-1 10 2 11 8 17 8 10 11 8 5 5-4 5-2 4-8 4-7-1-10-10 1-2 8 7 8 1-1-9v-3-2h-2l-6-8-5-6-4-7-5-4-5-10-1-8v-7l7-4 5-12z" fill="#1A1527"/>
<path transform="translate(713,189)" d="m0 0h15l11 2 15 8 1 5h-5v-2l-11-3-13-1h-10l-7 1-7 3-10 4-4 2-5 2-4 3h-3l2-5 7-8 6-4 14-6z" fill="#F87B9D"/>
<path transform="translate(1494,201)" d="m0 0h17l18 6 11 7 6 8 3 8 1 10-1-2-4-2-8-5-9-4-12-8 6-3-2-5-10-5-9-2-10-1z" fill="#FDE185"/>
<path transform="translate(1435,289)" d="m0 0h10v2l5 2 5 5 2 7 11 7 1 3-4 1-11-2-13-5-7-3-4-2-4 4-1-1v-9l2-4z" fill="#FEEE90"/>
<path transform="translate(1190,152)" d="m0 0 7 1v2l4 2 6 8 6 10 4 13 4 4 6 1v2l5-2 3-5 8-6 2 1-8 9-6 10-6 12-8 22-1-4v-28l-3-15-7-17-8-11-8-7z" fill="#161127"/>
<path transform="translate(896,251)" d="m0 0 4 1 2 1v2h2l3 6 3 8h-3v2l-7 1v2l-6-1-13 6-4-3 1-13 5-5 9-6z" fill="#1D1B40"/>
<path transform="translate(629,188)" d="m0 0 9 1 8 4 6 5-1 2-11-2h-12l-11 2-14 7-9 7-6 5-5 5-4 5h-2l-2 4-5 4-6 7-1-4 5-12h3l3-3 1-3 8-5 7-6 1-2 5-2 4-4 1-2 7-4 11-3 7-3 3-1z" fill="#F66A94"/>
<path transform="translate(284,196)" d="m0 0h11l1 1v12l-21 5-10 4h-6l-1-3v-8l8-5 12-5z" fill="#F97EA0"/>
<path transform="translate(615,233)" d="m0 0 7 2 6 9 2 6v11l-2 1-22-3-1-5 3-12 5-8z" fill="#1D1A41"/>
<path transform="translate(1e3 167)" d="m0 0h36l-1 3-3 1-17 1-16 4-11 4-15 9-8 6-5 9v9h-2l-1-2v-13l8-11 10-8 15-9z" fill="#FEF8A1"/>
<path transform="translate(795,29)" d="m0 0 17 1 20 4 26 8 20 9 5 4v5l-9-6-15-7-11-3-10-4-19-5-6-1h-25l-17 3-11 6-3 4-1 8-2-4v-7l4-6 8-5 6-2z" fill="#F9B25C"/>
<path transform="translate(1433,153)" d="m0 0h9l6 4 4 7 1 9-2 7h-1v-5h-2l-4-10-5-3-8 2-4 6-2 11-1 1v15l1 9h5l4-2 2 1-8 6-6 2-2-2v-21l3-22 4-10 4-4z" fill="#FECD71"/>
<path transform="translate(1036,269)" d="m0 0 3 1 2 6v21l1 13h3l6 9 6 4-2 1-6-2-4-5v-2l-12-6-3-1-1 5h-1l1-9 4-3-4-4-1-25h3l5-1z" fill="#1B1527"/>
<path transform="translate(1062,175)" d="m0 0 4 2 11 11 8 11 9-4 8-11v3l-6 11-3 13-1 10v21l3 13 6 12v2l-3 1-6-2-2-14-2-30-3-14-8-15-11-14z" fill="#1B111D"/>
<path transform="translate(915,299)" d="m0 0h12l6 4 1 4-9 10-6 2h-8l-5-3-3-4 1-7 5-4z" fill="#130A15"/>
<path transform="translate(1490,196)" d="m0 0h17l23 7 11 6 7 8 3 6 2 11v16l-1 3-4 2-4 4-7 3h-3v-2l8-3 5-4 3-8-1-11-3-10-6-9-11-7-18-6-7-1h-13l-15 3-6 3-2-1 8-6z" fill="#161027"/>
<path transform="translate(274,236)" d="m0 0 7 1 8 4 1 1 4 33v5l-1-2-5-1-1 3h-3l-2 5-1-4 1-7v-9l-2-12-4-10-2-4z" fill="#3D103D"/>
<path transform="translate(595,284)" d="m0 0 18 2 14 2 7 2v3l-6 5-4 4-11 3h-5l-4-9-5-8z" fill="#1D1A41"/>
<path transform="translate(271,309)" d="m0 0h7l3 2-1 4-4 2-1 5-4 5h-2l-1 3-5 3h-7l-7-3-8-4v-1l11-2 15-12z" fill="#F56993"/>
<path transform="translate(904,116)" d="m0 0 1 2-6 8v5h-2v3l-14 6-10 3-17 1-2-4-14 1h-31l-6-2 3-1 12 1h17l22-2 16-3 19-7 9-7z" fill="#1B1526"/>
<path transform="translate(228,256)" d="m0 0h5l6 7 6 12v3l-17 3-5 1-2-5v-9l3-8z" fill="#1F1941"/>
<path transform="translate(928,210)" d="m0 0 4 4 3 7-2 4-9-5-5-3h-14l-18 6-6 4-13 6-8 5-10 6h-2v-7l2-4 4-1v3l8-1v-2l11-7 11-6 19-6 6-1h15l5 2z" fill="#FED073"/>
<path transform="translate(1274,168)" d="m0 0h7l1 2h18l2 1v2l-25 5-16 6-13 8-9 7-5 2 12-16 7-5 1-2 16-6h5z" fill="#FEFBA4"/>
<path transform="translate(405,276)" d="m0 0h7l7 3 2 2-1 6-4 5-8 4h-6l-5-4-3-7 1-6 3-2z" fill="#201941"/>
<path transform="translate(831,157)" d="m0 0 11 6 23 12 14 8h5v2l3 1-9 1-12-6-6-4-19-9-6-3h-3l17 8 10 6 11 5 4 3v2l-8-1v-2l-5-2-3-1v-2l-7-1v-2l-3-1v-2l-5-1-11-6-7-2-1-3 6 1-1-5h2z" fill="#161029"/>
<path transform="translate(807,25)" d="m0 0 8 1 2 1h10v2l4-2 1 4 9 1 10 4h3l4 2 14 6 1 2 4 1 2 2 2 4-5-2-21-9-27-8-16-3-17-1h-10v-3l5-1z" fill="#161028"/>
<path transform="translate(906,200)" d="m0 0h8l7 3v2h2l1 3-1 1h-7l-9-2-19 6-16 8-8 6h-4l2-4 5-6 10-6 13-6 10-3z" fill="#FEFBA3"/>
<path transform="translate(724,105)" d="m0 0 9 1 22 4 10 2 11 2h16l12-1h13l-4 3-10 2h-35l-13-1-16-4-14-5z" fill="#FEFCA5"/>
<path transform="translate(1425,154)" d="m0 0 4 1-2 4-4 14-2 17-1 21-2-1v-2h-2l-4-8h-3l1-4 4-1-2-5 1-4 4-20 3-3-1-8z" fill="#1B1526"/>
<path transform="translate(634,295)" d="m0 0 5 1 4 4v5h-5l-2 4-7 3-6 1h-10l-5-1v-2h-2l1-4 11-1v-2l9-4z" fill="#F05584"/>
<path transform="translate(1278,163)" d="m0 0h23l14 5 12 12v2h2l6 7 7 2-2 3-5 1-9-11-8-8-10-6-7-2-13-1v2h-3v-2l-11 1 1 4h-3l-1-3-13 5-4 1 1-2h2v-2h2l1-3 10-4z" fill="#181126"/>
<path transform="translate(801,77)" d="m0 0 2 2 2 4 1-4h3v4h8l1-4h5l-4 1v3l4-1 14 1 6 2-2 3-7 3h-5l1-2-9 2-5 1h-13l-7-5 1-2 2 1h1l2-6-7 1 1-3z" fill="#271C2A"/>
<path transform="translate(569,151)" d="m0 0h1v20l-4 22v20l2 4 4 1 4-7 1 2-8 15-8 18h-1v-24l2-22 6-34z" fill="#2F0E35"/>
<path transform="translate(1491,200)" d="m0 0h13v1l-13 2-8 2-14 7-7 6-3 9-2 5v6l5 9 2 1 2-10 3-8 1 3-2 8-1 14-3 1-5-9-4-8-2 5-1-4h-2l1-10 7-14 7-7 11-6z" fill="#FECC71"/>
<path transform="translate(53,184)" d="m0 0 2 1-12 11-6 9-1 2v14l6 21 13 37 11 30 10 29 13 36-1 3-6-15-10-28-9-24-5-14-8-23-14-41-2-7v-19l5-9 11-11z" fill="#330E37"/>
<path transform="translate(1277,211)" d="m0 0 7 1 5 5 3 7v13l-2 5-10 2h-8l-6-5-1-9 2-8 6-9zm-5 8-3 3-2 5 1 11 6 2h7l5-3 2-4 1-12-10-2z" fill="#261A28"/>
<path transform="translate(817,17)" d="m0 0 11 1 22 6 23 8 16 8 8 7 3 7v9l-2 9 13 13 8 14 2 8-1 8-4 10-5 6-5 4-2-1 8-8 5-9 1-4v-7l-4-11-8-11-10-7-3-2 4-10v-14l-5-6-14-8-19-7-18-6-24-6z" fill="#FDD681"/>
<path transform="translate(1518,329)" d="m0 0 1 3-7 10-13 8-4 4-7 2-13-1-15-5-5-4-5-3-9-7v-2l4 2 13 8 10 3h26l11-4 10-9z" fill="#251927"/>
<path transform="translate(1389,237)" d="m0 0 2 2-3 27-1 8-1 4 2 1v7l-2 6-3 16-2 7-4 2-3 9-4 7-1-2 5-12 5-21z" fill="#251B28"/>
<path transform="translate(1485,294)" d="m0 0 7 1 8 6-2 4-8 5-5 2h-9l-7-6 5-4 5-2 1-4z" fill="#FEE98C"/>
<path transform="translate(1023,161)" d="m0 0 17 1 8 4-1 2h-43l-8 2-5 1-11 6-11 9-4 2 3-5 9-8 12-7 16-5z" fill="#B68952"/>
<path transform="translate(892,95)" d="m0 0 7 3 5 3v3h-10l-9 6-16 5-23 4h-11v-1l8-1 7-2 12-3 15-6 12-8z" fill="#FEE488"/>
<path transform="translate(870,325)" d="m0 0 1 2h2l7 11 7 6 5 3 11 3h16l13-4 4-1 2-5 3-2 12 6 5 1v1l-13-1h-7l-9 7-17 4-19-3-6-3-5-5-4-6-4-4-4-7z" fill="#1D1627"/>
<path transform="translate(885,88)" d="m0 0 4 1 10 6 4 4v2l-4-2-9-5-7 1-10 6-17 5-26 4-8 1h-13l2-2 8-2 21-2 29-7 14-8z" fill="#DC9C54"/>
<path transform="translate(1456,217)" d="m0 0 1 2-5 11-1 10 2 11 8 17 2 4-3-1-5-5-7-6-5-10-1-8v-7l7-4 5-12z" fill="#1B1627"/>
<path transform="translate(921,275)" d="m0 0 5 5 1 3-2 2-27 4-12 5-5 4-2 3h-3l-1 3v11l4 16h-2l-6-13-1-5v-15l2 4 5-7 10-6 11-4 24-3z" fill="#FED073"/>
<path transform="translate(116,236)" d="m0 0 4 2 7 8 8 14 7 18 4 15v19l-2 13-7 14-8 9-3-1-2-8v-6l2 2 2 3 9-3 2-6 3-7 2-15v-11l-7-24-9-20-8-11z" fill="#310E36"/>
<path transform="translate(1093,268)" d="m0 0 6 1 3-1 7 8 11 11 13 7-3 1-10-5-9-7-9-1-3 3-7 1-1 8-2 7-1-4 4-20z" fill="#271A29"/>
<path transform="translate(662,295)" d="m0 0h11l2 1 1 4-5 4h-2l-2 5-5 4-6 3-4-1v-7l7-11z" fill="#F87B9E"/>
<path transform="translate(1042,167)" d="m0 0 3 1-2 6-5 3h-18l-13 5-13 8-6 3-9 7-9 6-4 7-2-1 2-9 12-8 10-7 6-4 18-8 6-2 22-1z" fill="#FEE387"/>
<path transform="translate(1436,149)" d="m0 0 5 1 2-1 7 4 5 8 1 6v8l-4 15-7 11-5 4-4 4-11 5h-2v-2l10-5 6-5 6-9 4-8 3-12-1-9-4-7-5-3-9-1z" fill="#160F24"/>
<path transform="translate(974,287)" d="m0 0h1l1 8 3-1 6 4 2-1 8 24-3-3-2-3-7-4-5 2-2 4-2 10h-1z" fill="#261A28"/>
<path transform="translate(1376,132)" d="m0 0 2 1-8 8-6 10-2 4-2 2-4 13-3 7-1 5-2 3h-2l-1 10-3 3h-2l1-6v-4l7-11 6-25 5-12 6-5h2l-2 5-5 9 6-9z" fill="#150E20"/>
<path transform="translate(708,304)" d="m0 0 5 1 4 4 1 6-6 4h-12l-9-4-2-2v-3h10l5-5z" fill="#F97D9F"/>
<path transform="translate(1476,207)" d="m0 0h2l-2 7-5 3-3 6-4 6-1 8h2l2-2-2 11-1 2-4-2-4-8 1-9 3-6 2-6 7-6z" fill="#FEEC8E"/>
<path transform="translate(1115,312)" d="m0 0h7l5 3 6 4 3 1 14 1-5 4-2 1h-11l-17-3-4-4-1-3z" fill="#FEEF91"/>
<path transform="translate(1150,202)" d="m0 0 6 1 5 6v3h-2l4 5v3l-4-2h-6-3-5l-2 6-2-1-1-9 5-8z" fill="#150F27"/>
<path transform="translate(762,33)" d="m0 0h2l-1 3-6 4-2 4v7l3 9 2 4-5 2-6-2-3 3-4-4-1-6 3-1 4 1-1-6 5-13 6-4z" fill="#211A29"/>
<path transform="translate(466,149)" d="m0 0h1l-1 12-3 20 2 4v7l4 3-1 11-2 10h-2l-3-15-3-1v-16l4-16 3-17z" fill="#F66A93"/>
<path transform="translate(375,261)" d="m0 0h9v2l3 1-1 4-6 4-6 3-4 5-2 4h-2l-1 5h-2v-12l4-9z" fill="#FA80A1"/>
<path transform="translate(1393,137)" d="m0 0 4 1-4 3h-4v2l-9 5-10 11-7 11-5 5-3 5-2 5h-1v-8l4-10 6-4 10-15 8-7z" fill="#FDE387"/>
<path transform="translate(456,181)" d="m0 0h1l1 41v26h-1l-3-20-5-16-6-12 6 1 5-2 1-2z" fill="#2F0E35"/>
<path transform="translate(423,248)" d="m0 0h2v3l-4 3h-2l4 9-1 1h-19l2-2 5-1-3-2v-2h-5l-2 1v-2h-3v-2l8-2-17-1v-1l27-1z" fill="#EF5382"/>
<path transform="translate(1296,169)" d="m0 0 9 1 1 4-4 3-20 4-12 4-11 7-5 5-5 4-5 5-11 7-4 1 3-5 5-4h2l1-3 7-5 7-4 9-7 10-5 19-5 7-2 3-1v-2l-6-1z" fill="#FEE488"/>
<path transform="translate(1482,206)" d="m0 0 7 1 3 4-7 4-5-1-4 2 1 4-7 10-2 5h-2l-2 4-2-1 1-9 6-9 2-4 4-2 3-7z" fill="#FEFCA5"/>
<path transform="translate(645,193)" d="m0 0 6 4v3l-11-2h-12l-11 2-14 7-9 7-6 5-5 5-4 5h-2l-2 4-5 4-6 7-1-4 2-5h3l6-7 11-9 5-6 17-11 4-2h3v-2l10-3h20z" fill="#F05584"/>
<path transform="translate(1216,195)" d="m0 0 2 2 2 6 3-1h7l-2 5-7 18-4 11-1-4z" fill="#150B17"/>
<path transform="translate(723,201)" d="m0 0h12l14 4 5 2 2-1 2-3 2 2v3l-2 1h-7l-15-5-20 1-13 3-12 6-5 1-1 3-7 4-1 2h-4v-6l1 3 6-3 4-5 13-5 9-4 7-2z" fill="#F05584"/>
<path transform="translate(1151,168)" d="m0 0h32l13 3 10 5h3l2 5-1 4-2-4-7-4-21-4-17-2h-14l-10 3 3-3z" fill="#FED073"/>
<path transform="translate(877,264)" d="m0 0h2l-1 12 3 2-2 4-5 8-4 12v13l2 12-1-2h-2l-4-9 1-9 5-19 1-4 1-8-3-6 2-2 1 1z" fill="#1D1727"/>
<path transform="translate(1114,198)" d="m0 0 1 2-6 11-4 6-5 1-5 3h-2v6h-1v-16l1-5 6-1v2l9-2z" fill="#FED074"/>
<path transform="translate(722,105)" d="m0 0h2l1 2 21 7 9 2 19 2 8 1h53v1l-15 1h-42l-25-3-9-1-4 2-3-4-9-3-7-1v-5z" fill="#FED376"/>
<path transform="translate(1428,287)" d="m0 0 4 1-6 10-1 5v7l3 8 9 11 4 5-6-3v-2l-5-2-5-5-4-6-1-3v-13l2-6 4-6z" fill="#261A28"/>
<path transform="translate(1433,290)" d="m0 0 2 1-3 5 4 6v2l5 2 16 6 4 1-3-6 5 2 6 4v2l-4 1-11-2-13-5-7-3-4-2-4 4-1-1v-9l2-4z" fill="#FDE084"/>
<path transform="translate(274,236)" d="m0 0 7 1 8 4v16l-4 1-4-2-4-11-3-6z" fill="#2E0E34"/>
<path transform="translate(1347,225)" d="m0 0h1v9l-3 19-6 23-3 7-3-1v-8l-6-1 3-1v-2l7-2 3-9 3-14 2-13z" fill="#1C111E"/>
<path transform="translate(1384,130)" d="m0 0h15l2 4-1 1-12 2-13 5-3 3h-4l2-5 7-7z" fill="#FEFBA4"/>
<path transform="translate(511,147)" d="m0 0 2 4-3 25-3 26-2 13h-1v-12l1-21 4-32z" fill="#2B0E33"/>
<path transform="translate(1271,168)" d="m0 0 2 1-1 3-12 5-6 1-2 4-4 3h-2l-2 4-9 11-3 3-2-1 6-10 10-11 10-7 12-5z" fill="#EDB766"/>
<path transform="translate(873,134)" d="m0 0 4 1-2 2-8 2-1 4-10 1-2-4-14 1h-31l-6-2 3-1 12 1h17l22-2z" fill="#28192A"/>
<path transform="translate(1062,175)" d="m0 0 4 2 11 11 8 11 9-4 8-11v3l-6 11-2 8-2-2h-6l-3-4h-3l-4-6-10-13z" fill="#181125"/>
<path transform="translate(422,284)" d="m0 0h2v7l-7 9-4 5-6 3-10 1-4-2-1-4h17l8-11 3-7z" fill="#F15685"/>
<path transform="translate(269,310)" d="m0 0 2 1-3 7v3h-2v2h-3v2l-13 4-6-1-3-3 11-2 15-12z" fill="#F7799C"/>
<path transform="translate(960,192)" d="m0 0 1 2-2 5v8h-2l-1 2h-2l-1 3-4-1-4 1-7-6-8-4 3-1 6 3h7 4l3-6z" fill="#1C1626"/>
<path transform="translate(522,218)" d="m0 0 2 2-1 27-1 5-1 54-3 9h-2v-12l2 2 1-1 1-74z" fill="#F15685"/>
<path transform="translate(335,193)" d="m0 0h14l8 5v3l-12-1-12 2-5 2-4-1 9-6h3z" fill="#F3628E"/>
<path transform="translate(552,138)" d="m0 0 5 1 8 6 3 3v6l-5-4-9-3-4-1-7 6-4 5 1-6 8-9z" fill="#F56892"/>
<path transform="translate(933,310)" d="m0 0 3 1v7h-2l-1 3-5 3-7 1-7-2-1-3 10-3 9-6z" fill="#FDE286"/>
<path transform="translate(842,151)" d="m0 0h8l-1 2-17 1 3 3 9 5 8 3 23 14 8 4-4 1-24-13-23-13-6-4-1-2z" fill="#C89556"/>
<path transform="translate(1138,252)" d="m0 0 7 6 4 2 7-1 7-5v3l-2 3h-3v2h-10l-3-1 7 8 6 3 13 2-3 2-9-1-10-4-7-5-5-9z" fill="#FDDB80"/>
<path transform="translate(1128,159)" d="m0 0 2 1-4 6h-2v2l-8 7-8 10-3 5h-2l-1 5-1-4-1-2 7-11 14-14z" fill="#F0CD7B"/>
<path transform="translate(894,96)" d="m0 0 5 2 5 3v3h-10l-9 6-16 5-23 4h-11v-1l22-3 19-5 16-8 3-1z" fill="#FED073"/>
<path transform="translate(228,280)" d="m0 0h10l2 2-1 1h10l3 1v2l-13 2-21 1 1-2 8-3z" fill="#F15887"/>
<path transform="translate(907,270)" d="m0 0 9 1v1l-13 2-9 3-13 8-8 10-1-2 5-10 8-7 9-4h5 1z" fill="#FCD37B"/>
<path transform="translate(1277,167)" d="m0 0h8v2h3v-2h13l11 4 9 7 2 4-4-2-10-3-5-1 1-5-9-1-14 1-1-3z" fill="#FDDC80"/>
<path transform="translate(1455,266)" d="m0 0 4 2 2 3 5 3 5 5 9 7 3 2-1 3-7 1-5-5v-2h-2l-6-8-5-6z" fill="#1A1129"/>
<path transform="translate(615,233)" d="m0 0 7 2 2 4-3-2h-6l-3 5-5 14v1l16 2 2 1 2-4v-8l-1-6 3 4 1 4v11l-2 1-22-3-1-5 3-12 5-8z" fill="#370F39"/>
<path transform="translate(558,275)" d="m0 0h1l4 20 4 9 1 4-4-4-1-2-6 1-3 4 1-14z" fill="#2E0F34"/>
<path transform="translate(927,209)" d="m0 0 2 3v2l-5-1h-15l-16 4-10 4-13 7-6 4h-2v2l-4 2h-5l2-6 3 2 8-4 11-7 8-4 15-5 15-2 12 1z" fill="#FEE387"/>
<path transform="translate(1190,152)" d="m0 0 7 1v2l4 2 6 8 6 10 1 9h-3l-5-12-8-11-8-7z" fill="#150F26"/>
<path transform="translate(458,286)" d="m0 0h1l4 29 1 9-4-4-4-1-2 5-1-2 3-12 1-17z" fill="#2A0E31"/>
<path transform="translate(296,147)" d="m0 0h9l10 4 6 5 3 5-1 3-4-4h-10l-3 1v-6l-2-7h-8z" fill="#F3638E"/>
<path transform="translate(917,306)" d="m0 0h6l3 3 1 2 4-2-2 4-6 5-4 1h-8l-5-3-3-4v-5l2 4 3 4h8l4-4-4-1z" fill="#1E1727"/>
<path transform="translate(1277,211)" d="m0 0 7 1 5 5 2 5h-5v-2h-14l-4 2 2-5 5-5z" fill="#28192A"/>
<path transform="translate(817,17)" d="m0 0 11 1 22 6 23 8 16 8 8 7h-3l-10-7-16-7-27-9-24-6z" fill="#FBC570"/>
<path transform="translate(1165,251)" d="m0 0 4 2 1 5-3 6-4 4-5 1-4-2v-4l4-1v-2l3-1z" fill="#FEFBA4"/>
<path transform="translate(721,237)" d="m0 0 5 1 4 6h-4l-1 3h-3l-1 9-4-4-3-4v-6l2-2h4z" fill="#3D103D"/>
<path transform="translate(926,201)" d="m0 0 6 1 10 6 7 7 6 9-1 3-4-7-7-5-7-3-10-8-2-2z" fill="#FDCC70"/>
<path transform="translate(853,102)" d="m0 0 6 1-3 3-26 4-8 1h-13l2-2 8-2 21-2z" fill="#D29551"/>
<path transform="translate(1034,229)" d="m0 0 4 1 1 4 1 14h1v8l-2-1-1-3-4-1-1-8-1-13z" fill="#1B1629"/>
<path transform="translate(1454,178)" d="m0 0 1 2-3 10-7 11-5 4-4 4-11 5h-2v-2l10-5 6-5 6-9 4-8 2-6z" fill="#171024"/>
<path transform="translate(1081,199)" d="m0 0 3 1 2 3h7l-1 18-1 5h-2l-4-16-4-8z" fill="#150B17"/>
<path transform="translate(1386,126)" d="m0 0h8l9 3 1 2h-20l-6 2-4 2-7 8-5 10-1-4 6-11 7-7 8-4z" fill="#F5B45F"/>
<path transform="translate(1524,223)" d="m0 0 16 2 7 3 1-2 2 8v6l-1-2-4-2-8-5-9-4z" fill="#FECF72"/>
<path transform="translate(1241,319)" d="m0 0 5 2 10 5 12 4 14 1 12-1-2 2-12 2-20-1-9-3-5-6z" fill="#1F1628"/>
<path transform="translate(1025,158)" d="m0 0 19 3 2 1 3 3-1 2-8-4-17-1-18 2-9 2 1-4 8-2 7-1h8z" fill="#17112A"/>
<path transform="translate(1491,200)" d="m0 0h13v1l-13 2-8 2-14 7-7 6-3 3 1-7 8-7 8-4z" fill="#F9B15B"/>
<path transform="translate(788,76)" d="m0 0 7 1-3 1 1 7 4 2 6 4h13l10-2 4-1 4 1-10 4-10 2h-7l-10-4-8-8z" fill="#F9B15B"/>
<path transform="translate(918,273)" d="m0 0 3 1 2 4-1 5-24 3-12 5-10 6-4 6h-1v-8l8-3 10-6 10-3 18-2 2-1z" fill="#FEE387"/>
<path transform="translate(1496,266)" d="m0 0 4 2 7 11 2 6v7l-5-5-7-12z" fill="#FFD174"/>
<path transform="translate(1456,217)" d="m0 0 1 2-5 11-1 10 2 11 8 17 2 4-3-1-7-7-4-13v-17l2-8 4-8z" fill="#27192A"/>
<path transform="translate(1401,196)" d="m0 0h2v11l-4 9-4 8-3 15h-2v-8l9-30z" fill="#1E1727"/>
<path transform="translate(1100,190)" d="m0 0 2 1 2 7h1v6l4 1-5 2h-5l-4-1-1 2 1-10z" fill="#FDE488"/>
<path transform="translate(834,167)" d="m0 0 5 1 19 10 12 6 4 3v2l-8-1v-2l-5-2-3-1v-2l-7-1v-2l-3-1v-2l-5-1-9-6z" fill="#140F25"/>
<path transform="translate(640,297)" d="m0 0 6 1 2 4 6 2-1 4-1 13h-1l-1-6-6-2-1 2v-13z" fill="#2F0E35"/>
<path transform="translate(301,305)" d="m0 0 5 5 5 4 2 8v8l-5-3-7-15z" fill="#EF5282"/>
<path transform="translate(902,274)" d="m0 0h8l-2 3-16 4v2l-13 7v-4l8-6 7-4z" fill="#FEF9A2"/>
<path transform="translate(940,338)" d="m0 0 13 6 5 1v1l-13-1h-7l-9 7-4 1h-18v-1l11-1 18-6 2-5z" fill="#1B1225"/>
<path transform="translate(724,100)" d="m0 0 8 1 7 2 1 1 4 1 2 1 14 1v1h-9v2l-22-4h-7l-1 5-2-2 1-7 2-1v2l5-1z" fill="#FAB65F"/>
<path transform="translate(993,169)" d="m0 0 3 1-20 12-8 7-6 9-1 11-3-4 1-9 5-8 5-3 11-9z" fill="#C99050"/>
<path transform="translate(1206,307)" d="m0 0h1v8l-5 14-7 9-2 3h-2l-2 4h-3l3-3v-3l7-8 7-15z" fill="#1E1727"/>
<path transform="translate(1150,202)" d="m0 0 6 1 3 3v2l-9 3-5 2v2l-4 1-1 2 1-6 4-6z" fill="#29192A"/>
<path transform="translate(53,184)" d="m0 0 2 1-12 11-6 9-1 2v14l6 21 4 12-1 2-5-12-6-19v-19l5-9 11-11z" fill="#380F3A"/>
<path transform="translate(452,211)" d="m0 0 4 1 2 10v26h-1l-3-20-3-11v-5z" fill="#2B1132"/>
<path transform="translate(1299,279)" d="m0 0 9 1 4 3 8 2 3 5 4 2-1 3-8-4-10-7-3-1h-10l-7 1 1-2 6-2z" fill="#1D1B42"/>
<path transform="translate(1111,315)" d="m0 0 2 3 4 2 11 2 8 1 1-2h13l-5 4-2 1h-11l-17-3-4-4-1-3z" fill="#FEE488"/>
<path transform="translate(1041,250)" d="m0 0 2 1v51l1 8h-2l-1-2-1-11v-21z" fill="#29172C"/>
<path transform="translate(684,307)" d="m0 0 9 2-4 1 2 4 9 4 9 1v1h-12l-11-3-5-5-1-3z" fill="#F05483"/>
<path transform="translate(1376,132)" d="m0 0 2 1-8 8-6 10-2 4-3-1v-10l4-6 4-3h2l-2 5-5 9 6-9z" fill="#3F2B28"/>
<path transform="translate(1326,271)" d="m0 0 4 1 4 2-1 8 3 1v3l-5 1-5-8-4-5 4-1z" fill="#1B1627"/>
<path transform="translate(1170,233)" d="m0 0h1l5 21 1 4-3 8-1 5h-1l-1-23-1-2-2 1 1-6z" fill="#FED174"/>
<path transform="translate(689,310)" d="m0 0h8l2 2h-2v2h6l5 1v1l6 1-2 2h-12l-9-4-2-2z" fill="#F56A93"/>
<path transform="translate(595,284)" d="m0 0 18 2 10 1v1h-17v5l3 9v2l4 1h-5l-4-9-5-8z" fill="#3A0F3B"/>
<path transform="translate(847,238)" d="m0 0 1 3v17l5 10 5 4 7 1 4-1-3 3h-7l-6-4-9-10-1-6v-4h2l1-11z" fill="#221729"/>
<path transform="translate(852,152)" d="m0 0v3l-10 4 4 4-6-2-10-6 2-2z" fill="#19101D"/>
<path transform="translate(1035,217)" d="m0 0 5 5 3 8 1 7 1 5-1 6-2-4-2-6-2-9-2-4z" fill="#FCD67F"/>
<path transform="translate(723,110)" d="m0 0 10 2 6 4 3 3 2 1v2l-6-1-16-8-1-2z" fill="#F9B25C"/>
<path transform="translate(716,104)" d="m0 0h4v8l1 5-6 2-2-1-1-3-5-1-1-4 3-1 1 3 3 1v-2h2v-6z" fill="#1B1627"/>
<path transform="translate(1340,264)" d="m0 0h1l-1 9-4 10-3-1v-8l-6-1 3-1v-2l7-2 1-2h2z" fill="#150C17"/>
<path transform="translate(668,244)" d="m0 0h1l4 15 6 12v3l-4-5-1-4h-5-3z" fill="#300E35"/>
<path transform="translate(813,159)" d="m0 0 6 2 8 5 9 3 12 6v2l4 1-2 2-23-11-14-9z" fill="#996E46"/>
<path transform="translate(1139,218)" d="m0 0 2 2 2 6-1 3v16l3 5 1 6-4-2-3-7z" fill="#1B1627"/>
<path transform="translate(395,231)" d="m0 0h10l4 2 7 10 2 6-3 1h-13v-1h10l-1-5v-3l-4-6-2-1-14-1z" fill="#3B0F3C"/>
<path transform="translate(994,166)" d="m0 0h6l-3 2-14 7-13 10-3 3-2-1 7-8 10-7z" fill="#FCDE8D"/>
<path transform="translate(1533,211)" d="m0 0 4 1 6 5 3 5v2l-5-1-8-5-3-5z" fill="#FEEB8E"/>
<path transform="translate(1261,275)" d="m0 0h25v1h-6l-1 2h-8l-3-2-1 2-2-1 2 7-1 4-3-1-2-4z" fill="#1B1524"/>
<path transform="translate(240,210)" d="m0 0 5 1 8 3v2h-8v2l-4 1-5-2-6-1 4-3 6-1z" fill="#F4658F"/>
<path transform="translate(494,141)" d="m0 0 9 2v2h2v5l-1 1-10-1-5-1 1-2 3-1z" fill="#EF5382"/>
<path transform="translate(881,89)" d="m0 0 3 1-13 8-13 4-11 2-1-2 14-4 13-5z" fill="#18122A"/>
<path transform="translate(748,71)" d="m0 0 15 15v3h-21l-10-1h-13l2-2h16l7 1h15l-6-8-5-6z" fill="#FABB63"/>
<path transform="translate(124,333)" d="m0 0 2 2 2 3 9-3-5 10-3 3-3-1-2-8z" fill="#2F0E35"/>
<path transform="translate(831,164)" d="m0 0 6 1 15 7 13 7 4 4-5-1-14-7-15-8-4-2z" fill="#1D1B42"/>
<path transform="translate(1133,294)" d="m0 0 24 1-2 6-16-2-6-3z" fill="#1A1228"/>
<path transform="translate(1270,164)" d="m0 0h7v3l-3 1 1 4h-3l-1-3-13 5-4 1 1-2h2v-2h2l1-3z" fill="#181227"/>
<path transform="translate(1212,265)" d="m0 0 2 3 2 12v6l-4 3-1 6h-1v-11z" fill="#1A0F1C"/>
<path transform="translate(537,170)" d="m0 0h2l-2 6-7 14-2 6-1-4 2-13 1-5 2 3 4-6z" fill="#F15987"/>
<path transform="translate(153,278)" d="m0 0 2 2 1 6-1 24-3 13-5 11-1-3 5-15 2-12z" fill="#F4628D"/>
<path transform="translate(1469,230)" d="m0 0 1 3-2 8-1 14-3 1-5-9-3-5v-2h2l4 7 2 1 2-10z" fill="#FFD174"/>
<path transform="translate(522,218)" d="m0 0 2 2-1 27-1 5v5l-2 1v-28z" fill="#F15685"/>
<path transform="translate(1138,223)" d="m0 0h1l1 24 4 8 4 3h7l4-1-3 3-7 1-9-6-2-6-1-7v-9z" fill="#271929"/>
<path transform="translate(869,297)" d="m0 0 2 1-1 4v13l2 12-1-2h-2l-4-9 1-9z" fill="#271929"/>
<path transform="translate(909,192)" d="m0 0h7l2 1v2l4-1v2l4 2 4 3-9-2-13-2-2-1v-2z" fill="#171228"/>
<path transform="translate(819,80)" d="m0 0h8l14 3 5 2-1 3-8 4-8 1v-2l9-3 4-2-5-2-14-1h-4z" fill="#F9B15B"/>
<path transform="translate(1171,166)" d="m0 0h11l14 3 7 4-3 1-7-3-10-2-30-1v-1z" fill="#FEE488"/>
<path transform="translate(217,356)" d="m0 0 10 2 3 1h16l8-1v2l-7 2h-17l-13-4z" fill="#EA4979"/>
<path transform="translate(699,295)" d="m0 0 5 4 2 5-5 6-4 1-4-2h4l1-10z" fill="#320E37"/>
<path transform="translate(145,293)" d="m0 0h1v19l-2 13-7 14-3 2 2-5 4-8 3-10z" fill="#380F3A"/>
<path transform="translate(1441,334)" d="m0 0 4 2 13 8 7 4 3 4-9-2-4-4-5-3-9-7z" fill="#2C1132"/>
<path transform="translate(1138,252)" d="m0 0 3 3 1 6 8 8 12 4 9 1-3 2-9-1-10-4-7-5-5-9z" fill="#FED073"/>
<path transform="translate(863,176)" d="m0 0 5 1 11 6h5v2l3 1-9 1-12-6z" fill="#161022"/>
<path transform="translate(637,240)" d="m0 0 4 2 4 8 1 8-2 6-5 5-4 1v-2l5-5 2-3v-9z" fill="#F25A88"/>
<path transform="translate(125,182)" d="m0 0 10 2 3 3-9-1-5-1h-18l-12 3-4-1h3v-2l9-2z" fill="#F35F8C"/>
<path transform="translate(1264,228)" d="m0 0h1l2 11 4 4v2h11l-1 2-9 1-8-4z" fill="#FDC770"/>
<path transform="translate(1115,308)" d="m0 0 10 2 13 9 3 2h-5v-2l-5-2-7-5h-11l-5 6-1 5h-1v-6l4-6z" fill="#F9B25C"/>
<path transform="translate(896,246)" d="m0 0 5 1v1l-7 2-5 5-8 5-5 7h-2l-1 3-1-3 14-15z" fill="#27182A"/>
<path transform="translate(1106,278)" d="m0 0h4l7 6 5 4 11 6-3 1-10-5-9-7-10-1v-2z" fill="#300F35"/>
<path transform="translate(793,76)" d="m0 0h8v2l-5 1-1 2 7-1-1 8-6-2-4-4z" fill="#322943"/>
<path transform="translate(1187,341)" d="m0 0 3 1-5 6-5 4-7 3h-6v-2l9-4 9-6z" fill="#181124"/>
<path transform="translate(398,277)" d="m0 0h6l-6 3-1 6 8 7 3 3h-6l-5-4-3-7 1-6z" fill="#320F37"/>
<path transform="translate(978,294)" d="m0 0 7 4 2-1 1 4v8l-3-1v-2l-4-4-3-4-2 1v-4z" fill="#1B1626"/>
<path transform="translate(1428,287)" d="m0 0 4 1-6 10h-2l-1 6-3-2 1-7 5-7z" fill="#1D1627"/>
<path transform="translate(673,214)" d="m0 0 1 4-3 7-4 2-3-8 1-3h6z" fill="#3C0F3C"/>
<path transform="translate(960,192)" d="m0 0 1 2-2 5v8h-6l-2-6 5-5z" fill="#150F26"/>
<path transform="translate(1277,167)" d="m0 0h8v2h3v-2h13l9 3v1l-14-1-14 1-1-3z" fill="#F3AF5B"/>
<path transform="translate(334,230)" d="m0 0 2 1-2 3-1 7 1 11 1 9-2 3-3-20 1-10z" fill="#3D103D"/>
<path transform="translate(374,194)" d="m0 0 2 1-7 7v6l3 4h4l-2 5h-3l-4-6-2-2 1-7z" fill="#F2608B"/>
<path transform="translate(1380,125)" d="m0 0h15l1 2h-10l-9 3-8 6-4-1 6-6z" fill="#171023"/>
<path transform="translate(804,77)" d="m0 0 12 1 2 1-1 4-8 1-1-3 1-2h-3l1 4-4 1v-6z" fill="#F9B15B"/>
<path transform="translate(1122,166)" d="m0 0h2v2l-8 7-8 10-3 5h-2l-1 5-1-4-1-2 6-6 14-16z" fill="#CC9755"/>
<path transform="translate(831,157)" d="m0 0 10 5-4 1-2-1v2l-3 1 3 2v2l-10-3-1-3 6 1-1-5h2z" fill="#1B162A"/>
<path transform="translate(1552,234)" d="m0 0h1v16l-1 3-4 2-4 4-7 3h-3v-2l8-3 5-4 3-8z" fill="#1D1627"/>
<path transform="translate(464,153)" d="m0 0 1 3-3 18-3 10h-1v-11l5-18z" fill="#E94878"/>
<path transform="translate(433,196)" d="m0 0 7 1 2 4-6-2-7 1-16-1-7-1v-1h21z" fill="#F35F8B"/>
<path transform="translate(668,341)" d="m0 0 4 1 5 2v2l5 1 5 2 8 2v1h-9l-14-6-4-3z" fill="#EC4C7C"/>
<path transform="translate(1458,307)" d="m0 0 5 2 6 4v2l-4 1-11-2-7-3 1-2 13 4z" fill="#FEE488"/>
<path transform="translate(359,202)" d="m0 0 3 3 4-3-4 12-1 12h-1v-5l-3-1 2-9z" fill="#2E0E35"/>
<path transform="translate(1163,354)" d="m0 0 9 1v1l-7 2h-23l-2-2 17-1z" fill="#1C1425"/>
<path transform="translate(228,256)" d="m0 0h5l4 4-1 2-5-3-5 3-1 8h-2l-1 7h-1v-9l3-8z" fill="#3D103D"/>
<path transform="translate(1260,328)" d="m0 0 15 3 19-1-2 2-12 2-18-1z" fill="#261929"/>
<path transform="translate(890,276)" d="m0 0 4 1-13 8-8 10-1-2 4-9 4-2z" fill="#C88F50"/>
<path transform="translate(993,169)" d="m0 0 3 1-20 12-8 7v-3l7-6 10-7z" fill="#261B28"/>
<path transform="translate(896,48)" d="m0 0h2l2 6v9l-2 9 5 6-5-2-4-2 1-4 2-5v-14z" fill="#C38E50"/>
<path transform="translate(302,310)" d="m0 0 5 4 4 7-1 4h-3l-5-11z" fill="#F3648E"/>
<path transform="translate(392,303)" d="m0 0 18 2v2l-9 2-5-1-3-1z" fill="#F76D96"/>
<path transform="translate(1216,284)" d="m0 0 2 3 4 8-1 2-2-1h-6l-1-2z" fill="#271A29"/>
<path transform="translate(1095,278)" d="m0 0 3 1 2 4-1 2-7 1-1 8-2 7-1-4 3-14h2z" fill="#1F1727"/>
<path transform="translate(1011,159)" d="m0 0 1 2h11v1l-18 2-9 2 1-4 8-2z" fill="#1A142B"/>
<path transform="translate(1458,297)" d="m0 0 8 6h7l-1 2h-3l1 3-2 1-7-4-4-5z" fill="#F9B25B"/>
<path transform="translate(1156,207)" d="m0 0 5 2v3l-4 2h-11l4-4 6-1z" fill="#140A16"/>
<path transform="translate(853,102)" d="m0 0 6 1-3 3-11 2-5-1v-2z" fill="#D69852"/>
<path transform="translate(652,315)" d="m0 0 2 1 2 8 5 9v2h2l3 4-4-1-6-7-4-9z" fill="#EC4D7D"/>
<path transform="translate(504,286)" d="m0 0 2 4-2 26-1 12h-1v-27l1-12z" fill="#360F39"/>
<path transform="translate(1434,287)" d="m0 0h12l9 6-2 1-8-4h-10l-7 4 2-4z" fill="#F9B15B"/>
<path transform="translate(97,229)" d="m0 0h7l3 2-10 1-1 12-2-2-2-10z" fill="#340F38"/>
<path transform="translate(736,202)" d="m0 0 6 1 12 4 2-1 2-3 2 2v3l-2 1h-7l-15-5z" fill="#F05483"/>
<path transform="translate(522,164)" d="m0 0h1v16l-2 7-2 18h-1v-11z" fill="#E64374"/>
<path transform="translate(893,137)" d="m0 0m-3 1h3v2l-10 3v2l-3 1v-2l-10 3-4-1z" fill="#1B1628"/>
<path transform="translate(827,88)" d="m0 0h7l-3 2-7 3-10 2h-7l-1-2 10-1 5-2z" fill="#FAB962"/>
<path transform="translate(1105,318)" d="m0 0h1l4 14 6 9 6 7-4-2-5-4-2-3-5-10z" fill="#241A27"/>
<path transform="translate(627,288)" d="m0 0 22 1v1l-11 1-1 4-8 4-2-1 4-2 1-3h2l-1-3-6-1z" fill="#3C0F3C"/>
<path transform="translate(993,165)" d="m0 0 2 1-15 8-5 4-2-1 4-5 1-2 9-3z" fill="#1C1526"/>
<path transform="translate(1401,132)" d="m0 0 4 2v2l-12 2-13 3 3-3 8-3 9-1z" fill="#FFF092"/>
<path transform="translate(830,104)" d="m0 0h10v2l-21 2h-7v-1h5v-2z" fill="#1B152B"/>
<path transform="translate(869,32)" d="m0 0 6 1 16 8 6 7-4-2-11-7-13-6z" fill="#FCD58C"/>
<path transform="translate(329,180)" d="m0 0 1 4 4 1 2 5 6 1v1l-12 1-1-1z" fill="#300E36"/>
<path transform="translate(1085,309)" d="m0 0 1 2-4 6-6 5-11 1 3-2 12-6z" fill="#1C1427"/>
<path transform="translate(1e3 163)" d="m0 0h6l1 4-12 2-4 1-2-2 3-2 4-2z" fill="#E9AA5A"/>
<path transform="translate(1376,130)" d="m0 0h2v2l-8 7-7 11-2 3 1-7 7-10z" fill="#FDDF8C"/>
<path transform="translate(1137,321)" d="m0 0h13l-5 4-2 1h-8z" fill="#FEE185"/>
<path transform="translate(229,308)" d="m0 0h6l-1 2 3 7 1 5-5-5-4-6z" fill="#310E36"/>
<path transform="translate(1454,178)" d="m0 0 1 2-3 10-2 2-4 1 2-6 3-8z" fill="#1C1626"/>
<path transform="translate(895,136)" d="m0 0h2v2l4-1-3 3-11 5-6 1 2-1v-2l10-3z" fill="#8A6B4F"/>
<path transform="translate(1510,250)" d="m0 0 4 2 1 1v6l-4 1h-3l1-7z" fill="#1B1627"/>
<path transform="translate(842,151)" d="m0 0h8l-1 2-17 1 2 4-6-2-3-4z" fill="#F9B966"/>
<path transform="translate(871,97)" d="m0 0 3 1-4 3-3 2-9 2-3-3z" fill="#FAB961"/>
<path transform="translate(1327,184)" d="m0 0 4 1 6 5 5 1-2 3-5 1-8-10z" fill="#191225"/>
<path transform="translate(859,171)" d="m0 0 5 1 12 8 7 3-4 1-20-11z" fill="#F9B55F"/>
<path transform="translate(1343,245)" d="m0 0 2 4-1 9-2 8h-3l2-12z" fill="#201522"/>
<path transform="translate(522,180)" d="m0 0h1v13l-3 12h-1l1-18z" fill="#F56791"/>
<path transform="translate(1494,201)" d="m0 0h17l4 2-2 1-22-1z" fill="#FECD71"/>
<path transform="translate(1347,186)" d="m0 0 1 4-2 7-4 1 1-6v-4z" fill="#1B1627"/>
<path transform="translate(422,284)" d="m0 0h2v7l-6 5-2-1 4-10z" fill="#F3638E"/>
<path transform="translate(1108,274)" d="m0 0 5 2 9 9-1 2-5-3-8-8z" fill="#FDC96E"/>
<path transform="translate(1389,237)" d="m0 0 2 2-3 23-2-1 1-12z" fill="#261928"/>
<path transform="translate(1150,205)" d="m0 0 5 1v3l-10 5-2-1z" fill="#F59C5D"/>
<path transform="translate(1099,192)" d="m0 0h1l-1 8-2 6h-2l-1 2 1-10z" fill="#FEE88D"/>
<path transform="translate(994,166)" d="m0 0h6l-3 2-16 8-1-3z" fill="#FCC96F"/>
<path transform="translate(549,144)" d="m0 0 8 1 11 3v6l-5-4-9-3-6-1z" fill="#F05584"/>
<path transform="translate(724,100)" d="m0 0 7 1-2 2-5-2zm-3 1 1 2h7l4 3h-11l-1 5-2-2 1-7z" fill="#FAB860"/>
<path transform="translate(138,340)" d="m0 0 1 2-3 5-5 5-2 3h-2l1-5 8-9z" fill="#F15685"/>
<path transform="translate(626,242)" d="m0 0 3 4 1 4v11l-2 1-3-2 2-4v-8z" fill="#310E36"/>
<path transform="translate(1545,219)" d="m0 0 3 3 2 4v4h2v11l-2-2-4-15z" fill="#180F1B"/>
<path transform="translate(1113,311)" d="m0 0h11l10 7 2 2-5-1-6-5-3-1h-7l-4 3-2-1z" fill="#FFD174"/>
<path transform="translate(116,236)" d="m0 0 4 2 7 8 6 10-1 2-3-3-5-9-8-9z" fill="#390F3B"/>
<path transform="translate(36,229)" d="m0 0h2l8 25-1 2-5-12-4-12z" fill="#3D103D"/>
<path transform="translate(1459,215)" d="m0 0h2l-3 9-1 2h-2l-2 4-1-3 6-11z" fill="#FBC066"/>
<path transform="translate(923,349)" d="m0 0h6l-1 3-3 1h-18v-1l11-1z" fill="#150D1E"/>
<path transform="translate(1123,161)" d="m0 0 2 1-12 11-7 8-1-4 12-11z" fill="#1A1325"/>
<path transform="translate(766,45)" d="m0 0 3 1-5 5-2 3h-2l-1 3-3-2v-8h1l1 5 4-1 2-4z" fill="#FEE285"/>
<path transform="translate(1518,329)" d="m0 0 1 3-7 10-8 4 2-4 8-7z" fill="#241928"/>
<path transform="translate(278,310)" d="m0 0 3 1-1 4-4 2-1 3-1-4-2-2 3-3z" fill="#F05483"/>
<path transform="translate(881,89)" d="m0 0 3 1-13 8h-5l3-3z" fill="#1A1328"/>
<path transform="translate(177,218)" d="m0 0 2 1v2l7-2h3l-4 5-3 4-5-8z" fill="#320E37"/>
<path transform="translate(918,113)" d="m0 0h1l-1 8-4 6-8 8-2-1 8-8 5-9z" fill="#FBC067"/>
<path transform="translate(153,278)" d="m0 0 2 2 1 6-1 24h-1z" fill="#F56791"/>
<path transform="translate(907,270)" d="m0 0 9 1v1l-13 2-5 2-4-1 3-3 2 1 1-1z" fill="#E4A457"/>
<path transform="translate(41,226)" d="m0 0h1l2 16 1 6h-2l-4-13z" fill="#EB4A7B"/>
<path transform="translate(834,167)" d="m0 0 5 1 11 6v2l-7-2-9-6z" fill="#120A1B"/>
<path transform="translate(142,322)" d="m0 0h1v6l-6 11-3 2 2-5 4-8z" fill="#360F39"/>
<path transform="translate(1283,163)" d="m0 0h10l5 2v1h-14l-4-2z" fill="#110813"/>
<path transform="translate(800,152)" d="m0 0 5 1 8 5-2 1-8-4-4 1-5 4-2-1z" fill="#F9B55E"/>
<path transform="translate(940,338)" d="m0 0 3 2-3 1-3 5-8 6-2-4 9-3 2-5z" fill="#1D1426"/>
<path transform="translate(1344,336)" d="m0 0 10 4 4 1v2l-9-1-5-3z" fill="#FCC469"/>
<path transform="translate(1480,199)" d="m0 0 4 2-4 2-10 4-2-1 8-6z" fill="#1D1627"/>
<path transform="translate(1187,341)" d="m0 0 3 1-5 6-6 3-2-1 3-4 5-3z" fill="#180F1C"/>
<path transform="translate(561,291)" d="m0 0 2 4 4 9 1 4-4-4-2-4-3-2 1-5z" fill="#3B0F3B"/>
<path transform="translate(1245,185)" d="m0 0v3l-11 13-4 2 1-3 5-5z" fill="#B3844E"/>
<path transform="translate(1242,185)" d="m0 0h2l-2 5-9 10-1-2 9-12z" fill="#FDDE87"/>
<path transform="translate(1200,162)" d="m0 0h2l6 8 4 9-1 3-7-13z" fill="#180E1A"/>
<path transform="translate(896,246)" d="m0 0 5 1v1l-7 2-5 5-4 1 4-6z" fill="#24152B"/>
<path transform="translate(1228,214)" d="m0 0v3l-4 7-2 4h-2l1-5 2-6z" fill="#FDDE82"/>
<path transform="translate(1243,182)" d="m0 0 2 1-8 9-3 3-1-3 2-4z" fill="#181124"/>
<path transform="translate(852,180)" d="m0 0 6 1v2l5 1 3 2v2l3 1-2 1-15-9z" fill="#59413B"/>
<path transform="translate(863,176)" d="m0 0 5 1 5 3v4l-5-2-5-5z" fill="#150F25"/>
<path transform="translate(866,307)" d="m0 0 2 3 1 10 1 5-3-4-2-5z" fill="#1B1627"/>
<path transform="translate(453,218)" d="m0 0 1 2 3 1v11l-3-4z" fill="#150918"/>
<path transform="translate(319,155)" d="m0 0 4 4 1 5-5-4-10-1v-1l9-2z" fill="#EE5180"/>
<path transform="translate(890,136)" d="m0 0m-2 1h2v2l-15 5-3-1 10-4z" fill="#1D1B42"/>
<path transform="translate(1399,130)" d="m0 0 8 2 2 5h-12v-1h8l-2-3-4-2z" fill="#FDDD81"/>
<path transform="translate(1113,341)" d="m0 0 7 6 1 2-3 1-6-5z" fill="#161127"/>
<path transform="translate(870,325)" d="m0 0 1 2h2l7 11 2 3-4-2-4-4-4-7z" fill="#211728"/>
<path transform="translate(642,260)" d="m0 0h3l-1 4-5 5-4 1v-2l5-5z" fill="#F15685"/>
<path transform="translate(372,257)" d="m0 0 2 1-4 9-2 1v-3l-2 1 1-4z" fill="#EE5382"/>
<path transform="translate(245,212)" d="m0 0 5 1 3 1v2h-8v2l-4 1v-2l2-1-1-2z" fill="#EE5080"/>
<path transform="translate(645,193)" d="m0 0 6 4v3l-9-2v-3h2z" fill="#ED507F"/>
<path transform="translate(1185,152)" d="m0 0 5 1 2 2 6 7 2 3-4-2-11-10z" fill="#F9B862"/>
<path transform="translate(793,76)" d="m0 0h8v2l-5 1-1 4-4-1z" fill="#3F2D2F"/>
<path transform="translate(458,286)" d="m0 0h1l1 15h-1l-1 6h-1v-14z" fill="#390F3B"/>
<path transform="translate(558,275)" d="m0 0h1l1 5v8l-3 1v-10z" fill="#240C26"/>
<path transform="translate(1270,275)" d="m0 0h16v1h-6l-1 2h-8z" fill="#1B1627"/>
<path transform="translate(228,256)" d="m0 0h5l4 4-1 2-5-3-3 2h-3l2-4z" fill="#340F38"/>
<path transform="translate(1352,175)" d="m0 0 1 2-1 5-5 5h-2l2-6z" fill="#171128"/>
<path transform="translate(1358,146)" d="m0 0h1l1 11-2-1-1 4h-2l1-8z" fill="#150F27"/>
<path transform="translate(126,360)" d="m0 0 2 1-2 5h9l-3 2h-7l-2-4z" fill="#F4628E"/>
<path transform="translate(1494,352)" d="m0 0 2 1-8 3-13-1v-1z" fill="#2B0E33"/>
<path transform="translate(1094,269)" d="m0 0h7l1 4-1 1h-5z" fill="#1B1627"/>
<path transform="translate(964,188)" d="m0 0h3l-1 4-5 5-1-3z" fill="#B0935F"/>
<path transform="translate(1110,175)" d="m0 0 3 1-7 8-4 5 1-5z" fill="#FDDB83"/>
<path transform="translate(878,144)" d="m0 0h2l1 3-14 4-3-1 5-2h4v-2z" fill="#9E7550"/>
<path transform="translate(217,356)" d="m0 0 10 2 3 1v2l-8-1-5-2z" fill="#EB4B7B"/>
<path transform="translate(1483,289)" d="m0 0 2 2-4 5-2 4-5 3-3-1 6-4z" fill="#261B28"/>
<path transform="translate(1039,236)" d="m0 0 2 2 1 5v7l-3-1z" fill="#27162C"/>
<path transform="translate(153,191)" d="m0 0 7 6 2 4-4-2-7-5 2-1z" fill="#EE5482"/>
<path transform="translate(1296,169)" d="m0 0 9 1 1 4-7 2 1-3h2v-2l-6-1z" fill="#FEE88A"/>
<path transform="translate(748,71)" d="m0 0 13 13-2 3-6-8-5-6z" fill="#E4A558"/>
<path transform="translate(192,335)" d="m0 0 3 3-1 6 2 1h-4l-2 3 1-8z" fill="#330E37"/>
<path transform="translate(1260,328)" d="m0 0 9 3 3 2h-10z" fill="#27132E"/>
<path transform="translate(1458,254)" d="m0 0 3 4 3 9-5-4-2-5z" fill="#FFD174"/>
<path transform="translate(1380,125)" d="m0 0h15l1 2h-10l-8 1-3-1z" fill="#1A1327"/>
<path transform="translate(879,57)" d="m0 0 3 2-1 3-5 2-2-5z" fill="#FEDD81"/>
<path transform="translate(516,303)" d="m0 0 3 2v7l-1 3h-2z" fill="#EC517F"/>
<path transform="translate(1154,295)" d="m0 0 3 1-2 2-16-1v-1z" fill="#110813"/>
<path transform="translate(226,276)" d="m0 0 6 3-4 2-5 1-1-5 4 1z" fill="#3D103D"/>
<path transform="translate(893,73)" d="m0 0 12 6 1 2-3 1-10-7z" fill="#E5C48A"/>
<path transform="translate(927,314)" d="m0 0 4 1-2 4-6 2 2-5z" fill="#FEE68A"/>
<path transform="translate(392,303)" d="m0 0 4 1-1 1 5 2h7v1l-10 1-4-2z" fill="#F15886"/>
<path transform="translate(359,211)" d="m0 0 2 4v11h-1v-5l-3-1z" fill="#370F3A"/>
<path transform="translate(1216,192)" d="m0 0 3 4 5 6-4 1-3-6h-2z" fill="#1D1627"/>
<path transform="translate(857,172)" d="m0 0 6 2 2 2-1 2-7-2z" fill="#191327"/>
<path transform="translate(853,102)" d="m0 0 6 1-3 3-8-1 1-2z" fill="#CA8F4F"/>
<path transform="translate(731,101)" d="m0 0 8 2-3 2v2h-3v-2l-4-1z" fill="#E2A659"/>
<path transform="translate(1231,312)" d="m0 0 5 2 4 5-4 1-5-6z" fill="#191327"/>
<path transform="translate(1454,291)" d="m0 0 4 2 7 8 1 2-4-2-8-8z" fill="#201727"/>
<path transform="translate(1163,254)" d="m0 0v3l-2 3h-3v2l-4-1 5-4z" fill="#F8AE61"/>
<path transform="translate(1392,226)" d="m0 0h1v7l-1 6h-2v-8z" fill="#1C1422"/>
<path transform="translate(377,175)" d="m0 0 3 1-11 6h-3v-2z" fill="#E9A759"/>
<path transform="translate(546,146)" d="m0 0 2 1-7 8-2 2 1-6z" fill="#F4618D"/>
<path transform="translate(742,131)" d="m0 0 6 2 3 2-1 2-7-1-2-4z" fill="#1C162A"/>
<path transform="translate(889,178)" d="m0 0" fill="#261B28"/>
</svg>
